<mxfile host="app.diagrams.net" modified="2022-11-23T09:48:31.166Z" agent="5.0 (Windows NT 10.0; Win64; x64) AppleWebKit/537.36 (KHTML, like Gecko) Chrome/107.0.0.0 Safari/537.36" version="20.6.0" etag="_AL6_4rF8qVYDD5GClwj" type="github">
  <diagram id="yJ4BQM4C2GdOWfPaIlxf" name="第 1 页">
    <mxGraphModel dx="924" dy="500" grid="1" gridSize="10" guides="1" tooltips="1" connect="1" arrows="1" fold="1" page="1" pageScale="1" pageWidth="827" pageHeight="1169" math="0" shadow="0">
      <root>
        <mxCell id="0" />
        <mxCell id="1" parent="0" />
        <mxCell id="jj3Smo2vYG_p02jV_rtp-53" value="" style="endArrow=none;dashed=1;html=1;rounded=0;shadow=0;" edge="1" parent="1">
          <mxGeometry width="50" height="50" relative="1" as="geometry">
            <mxPoint x="20" y="681.87" as="sourcePoint" />
            <mxPoint x="780" y="680.62" as="targetPoint" />
          </mxGeometry>
        </mxCell>
        <mxCell id="jj3Smo2vYG_p02jV_rtp-16" value="kettle_list_new+kettle_list_old" style="rounded=0;whiteSpace=wrap;html=1;" vertex="1" parent="1">
          <mxGeometry x="120" y="790" width="190" height="55" as="geometry" />
        </mxCell>
        <mxCell id="jj3Smo2vYG_p02jV_rtp-41" style="edgeStyle=orthogonalEdgeStyle;rounded=0;orthogonalLoop=1;jettySize=auto;html=1;exitX=0.5;exitY=1;exitDx=0;exitDy=0;entryX=0.5;entryY=0;entryDx=0;entryDy=0;" edge="1" parent="1" source="jj3Smo2vYG_p02jV_rtp-21" target="jj3Smo2vYG_p02jV_rtp-16">
          <mxGeometry relative="1" as="geometry" />
        </mxCell>
        <mxCell id="jj3Smo2vYG_p02jV_rtp-59" style="edgeStyle=orthogonalEdgeStyle;rounded=0;orthogonalLoop=1;jettySize=auto;html=1;exitX=1;exitY=0.5;exitDx=0;exitDy=0;shadow=0;" edge="1" parent="1" source="jj3Smo2vYG_p02jV_rtp-21">
          <mxGeometry relative="1" as="geometry">
            <mxPoint x="320" y="603" as="targetPoint" />
          </mxGeometry>
        </mxCell>
        <mxCell id="jj3Smo2vYG_p02jV_rtp-21" value="dblink" style="rounded=0;whiteSpace=wrap;html=1;" vertex="1" parent="1">
          <mxGeometry x="120" y="576.25" width="120" height="53.75" as="geometry" />
        </mxCell>
        <mxCell id="jj3Smo2vYG_p02jV_rtp-40" value="如果 dblink中有表/存储过程/视图已存在于kettle则剔除" style="shape=note;whiteSpace=wrap;html=1;backgroundOutline=1;darkOpacity=0.05;fillColor=#FFFFCC;" vertex="1" parent="1">
          <mxGeometry x="240" y="710" width="220" height="60" as="geometry" />
        </mxCell>
        <mxCell id="jj3Smo2vYG_p02jV_rtp-44" value="在kettle建立调度" style="rounded=0;whiteSpace=wrap;html=1;fillColor=#FFFFFF;" vertex="1" parent="1">
          <mxGeometry x="324" y="576.25" width="120" height="57.5" as="geometry" />
        </mxCell>
        <mxCell id="jj3Smo2vYG_p02jV_rtp-50" style="edgeStyle=orthogonalEdgeStyle;rounded=0;orthogonalLoop=1;jettySize=auto;html=1;exitX=0.5;exitY=1;exitDx=0;exitDy=0;entryX=0.5;entryY=0;entryDx=0;entryDy=0;" edge="1" parent="1" source="jj3Smo2vYG_p02jV_rtp-49" target="jj3Smo2vYG_p02jV_rtp-44">
          <mxGeometry relative="1" as="geometry" />
        </mxCell>
        <mxCell id="jj3Smo2vYG_p02jV_rtp-49" value="NCC" style="rounded=0;whiteSpace=wrap;html=1;fillColor=#FFFFFF;" vertex="1" parent="1">
          <mxGeometry x="444" y="450" width="120" height="40" as="geometry" />
        </mxCell>
        <mxCell id="jj3Smo2vYG_p02jV_rtp-54" value="" style="endArrow=none;dashed=1;html=1;rounded=0;shadow=0;" edge="1" parent="1">
          <mxGeometry width="50" height="50" relative="1" as="geometry">
            <mxPoint x="20" y="541.2499999999999" as="sourcePoint" />
            <mxPoint x="780" y="539.9999999999999" as="targetPoint" />
          </mxGeometry>
        </mxCell>
        <mxCell id="jj3Smo2vYG_p02jV_rtp-56" style="edgeStyle=orthogonalEdgeStyle;rounded=0;orthogonalLoop=1;jettySize=auto;html=1;exitX=0.25;exitY=1;exitDx=0;exitDy=0;entryX=0.132;entryY=0.031;entryDx=0;entryDy=0;entryPerimeter=0;shadow=0;" edge="1" parent="1" source="jj3Smo2vYG_p02jV_rtp-55" target="jj3Smo2vYG_p02jV_rtp-44">
          <mxGeometry relative="1" as="geometry" />
        </mxCell>
        <mxCell id="jj3Smo2vYG_p02jV_rtp-55" value="ODS/DA" style="rounded=0;whiteSpace=wrap;html=1;fillColor=#FFFFFF;" vertex="1" parent="1">
          <mxGeometry x="310" y="450" width="120" height="40" as="geometry" />
        </mxCell>
        <mxCell id="jj3Smo2vYG_p02jV_rtp-60" value="&lt;h4&gt;&lt;font style=&quot;font-size: 18px;&quot;&gt;源&lt;/font&gt;&lt;/h4&gt;" style="text;html=1;strokeColor=none;fillColor=none;align=center;verticalAlign=middle;whiteSpace=wrap;rounded=0;" vertex="1" parent="1">
          <mxGeometry x="30" y="470" width="60" height="30" as="geometry" />
        </mxCell>
        <mxCell id="jj3Smo2vYG_p02jV_rtp-63" value="* NCC为新系统作为源,ODS/DA（oracle）为目标系统" style="text;html=1;strokeColor=none;fillColor=none;align=left;verticalAlign=middle;whiteSpace=wrap;rounded=0;fontFamily=Helvetica;fontSize=18;" vertex="1" parent="1">
          <mxGeometry x="44" y="380" width="400" height="40" as="geometry" />
        </mxCell>
      </root>
    </mxGraphModel>
  </diagram>
</mxfile>
